M48
; DRILL file {KiCad 9.0.7} date 2026-04-04T09:01:40-0400
; FORMAT={-:-/ absolute / inch / decimal}
; #@! TF.CreationDate,2026-04-04T09:01:40-04:00
; #@! TF.GenerationSoftware,Kicad,Pcbnew,9.0.7
; #@! TF.FileFunction,Plated,1,4,PTH
FMAT,2
INCH
; #@! TA.AperFunction,Plated,PTH,ViaDrill
T1C0.0118
; #@! TA.AperFunction,Plated,PTH,ComponentDrill
T2C0.0315
; #@! TA.AperFunction,Plated,PTH,ComponentDrill
T3C0.0374
; #@! TA.AperFunction,Plated,PTH,ComponentDrill
T4C0.0394
; #@! TA.AperFunction,Plated,PTH,ComponentDrill
T5C0.0402
; #@! TA.AperFunction,Plated,PTH,ComponentDrill
T6C0.0472
; #@! TA.AperFunction,Plated,PTH,ComponentDrill
T7C0.0787
; #@! TA.AperFunction,Plated,PTH,ComponentDrill
T8C0.1260
%
G90
G05
T1
X1.1772Y-5.5512
X1.1811Y-1.6535
X1.2126Y-5.4803
X1.2165Y-1.5827
X1.2165Y-5.6299
X1.2205Y-1.7323
X1.2992Y-3.3858
X1.3031Y-5.4764
X1.3071Y-1.5787
X1.315Y-5.622
X1.3189Y-1.7244
X1.3228Y-3.4173
X1.3543Y-5.5512
X1.3583Y-1.6535
X1.5157Y-3.6575
X1.5157Y-3.6929
X1.5354Y-4.0748
X1.7126Y-2.7362
X1.7126Y-4.0748
X1.7226Y-2.4803
X1.7323Y-3.2283
X1.7323Y-3.2874
X1.7323Y-3.3858
X1.752Y-2.3819
X1.7717Y-3.4252
X1.811Y-2.185
X1.8211Y-2.4252
X1.8307Y-1.752
X1.8307Y-3.2283
X1.9409Y-3.5669
X1.9685Y-3.4055
X2.0079Y-3.3661
X2.0472Y-4.1339
X2.0591Y-3.5669
X2.126Y-3.3071
X2.1654Y-3.1299
X2.1654Y-4.1339
X2.1772Y-3.5669
X2.2244Y-3.1496
X2.2303Y-3.4154
X2.2638Y-3.4252
X2.2835Y-4.1339
X2.2953Y-3.5669
X2.3622Y-2.9921
X2.3622Y-3.1299
X2.3622Y-3.2874
X2.3622Y-3.4252
X2.3622Y-3.5039
X2.3622Y-3.5669
X2.4016Y-4.1339
X2.4154Y-4.4528
X2.4154Y-4.5157
X2.4173Y-4.3898
X2.4193Y-4.5787
X2.4193Y-4.6417
X2.4409Y-2.8937
X2.4409Y-4.7205
X2.4606Y-4.0748
X2.4606Y-4.1339
X2.5Y-4.1102
X2.5079Y-3.5315
X2.5394Y-2.7953
X2.5472Y-3.5902
X2.5591Y-4.1102
X2.6181Y-4.1102
X2.6575Y-2.6772
X2.6732Y-4.1102
X2.7008Y-4.0315
X2.7244Y-3.9724
X2.7701Y-4.333
X2.7756Y-4.0945
X2.7756Y-4.1535
X2.7776Y-4.6417
X2.815Y-2.6772
X2.8287Y-4.7913
X2.8346Y-4.1535
X2.8661Y-5.0197
X2.8701Y-4.5394
X2.8701Y-4.5866
X2.8701Y-4.6378
X2.874Y-4.3543
X2.8839Y-4.7677
X2.8937Y-4.0945
X2.9252Y-4.5394
X2.9252Y-4.5866
X2.9252Y-4.6378
X2.9272Y-3.8701
X2.9488Y-5.0197
X2.9528Y-4.0945
X2.9528Y-4.1535
X2.9528Y-4.3543
X2.9724Y-2.6772
X3.0118Y-4.0945
X3.0118Y-4.1535
X3.0344Y-4.5226
X3.0447Y-4.5699
X3.0709Y-4.0945
X3.0709Y-4.1535
X3.0908Y-4.3034
X3.1063Y-4.6575
X3.1063Y-4.7402
X3.1181Y-3.9173
X3.1299Y-2.6772
X3.1378Y-4.1457
X3.1437Y-4.9409
X3.185Y-4.1063
X3.189Y-4.5669
X3.1929Y-4.5039
X3.2008Y-4.4409
X3.2244Y-4.6969
X3.2283Y-3.5984
X3.248Y-2.7362
X3.2598Y-4.1654
X3.2598Y-4.3484
X3.2598Y-4.5354
X3.291Y-4.1058
X3.3661Y-2.8543
X3.374Y-4.1063
X3.4006Y-3.5984
X3.4173Y-3.6535
X3.4213Y-4.2323
X3.4606Y-4.1063
X3.4843Y-2.9724
X3.4843Y-3.189
X3.4843Y-3.3465
X3.5069Y-3.6417
X3.5551Y-3.5394
X3.5709Y-4.1063
X3.5984Y-3.5394
X3.6457Y-3.5394
X3.6654Y-4.1063
X3.6772Y-4.8031
X3.6811Y-2.0669
X3.6811Y-2.185
X3.6811Y-2.3031
X3.6811Y-2.4213
X3.6811Y-2.5394
X3.6811Y-2.6575
X3.6811Y-2.7756
X3.6811Y-2.8937
X3.6929Y-3.5394
X3.7589Y-2.8179
X3.7677Y-4.1063
X3.7795Y-3.2874
X3.7992Y-2.8937
X3.81Y-2.8179
X3.8386Y-2.0669
X3.8484Y-4.0128
X3.8691Y-2.8179
X3.8799Y-4.0116
X3.9173Y-2.0669
X3.9173Y-2.8937
X3.9203Y-2.8179
X3.9213Y-4.9213
X3.937Y-3.2874
X4.0354Y-2.0276
X4.0354Y-2.8937
X4.0551Y-2.126
X4.0551Y-3.2874
X4.0748Y-4.5472
X4.1142Y-2.8937
X4.1535Y-2.0276
X4.1929Y-2.126
X4.2126Y-3.2874
X4.2352Y-2.751
X4.252Y-2.8937
X4.2717Y-2.0276
X4.2746Y-2.751
X4.311Y-2.2441
X4.311Y-2.3622
X4.311Y-2.4803
X4.311Y-2.5787
X4.311Y-4.5472
X4.3307Y-2.8937
X4.3504Y-2.1063
X4.3691Y-2.6526
X4.3701Y-3.2874
X4.4094Y-2.8937
X4.4291Y-2.185
X4.4685Y-4.5472
X4.4882Y-2.8937
X4.503Y-2.752
X4.5079Y-2.2638
X4.5276Y-2.7165
X4.5276Y-3.2874
X4.5669Y-2.8937
X4.5866Y-2.3425
X4.5866Y-3.0709
X4.5866Y-3.2677
X4.6181Y-2.752
X4.626Y-3.2874
X4.626Y-4.5472
X4.6457Y-2.8937
X4.685Y-2.6969
X4.7047Y-2.8937
X4.7638Y-2.8937
X4.7638Y-3.2874
X4.7835Y-4.5472
X4.9213Y-3.2874
X4.9409Y-4.5472
X5.0197Y-4.5472
X5.0787Y-3.2874
X5.1772Y-4.5472
X5.1909Y-2.5138
X5.1969Y-3.2874
X5.2953Y-2.2815
X5.3346Y-4.2323
X5.3346Y-4.3898
X5.3346Y-4.5472
X5.374Y-4.0945
X5.374Y-4.1732
X5.4499Y-3.8701
X5.4499Y-3.9094
X5.4499Y-3.9488
X5.4724Y-2.2717
X5.4724Y-2.3031
X5.4803Y-3.4252
X5.4812Y-3.4646
X5.4932Y-3.8701
X5.4932Y-3.9094
X5.4932Y-3.9488
X5.5118Y-4.4035
X5.5315Y-4.0354
X5.5365Y-3.8701
X5.5365Y-3.9094
X5.5365Y-3.9488
X5.5403Y-3.4252
X5.5403Y-3.4646
X5.5472Y-4.4055
X5.5512Y-2.9488
X5.5709Y-4.4882
X5.5798Y-3.8701
X5.5798Y-3.9094
X5.5798Y-3.9488
X5.5866Y-4.0984
X5.5866Y-4.4528
X5.6102Y-1.9488
X5.6299Y-1.9075
X5.6299Y-2.815
X5.6496Y-3.7795
X5.6654Y-4.2008
X5.6654Y-4.4134
X5.6654Y-5.1181
X5.6693Y-2.813
X5.6693Y-4.4488
X5.689Y-4.0433
X5.7087Y-4.2126
X5.7087Y-4.8031
X5.7087Y-5.0394
X5.7362Y-4.8346
X5.7362Y-5.2835
X5.8071Y-3.7598
X5.8071Y-4.9213
X5.8268Y-3.2874
X5.8465Y-3.0315
X5.8465Y-4.0551
X5.8661Y-3.2854
X5.9055Y-2.3996
X5.9252Y-2.0866
X5.9252Y-2.1299
X5.9252Y-2.1654
X5.9252Y-3.1299
X5.9252Y-3.1693
X5.9449Y-5.1614
X5.9646Y-3.7598
X6.0039Y-4.0551
X6.0039Y-4.2126
X6.0039Y-4.2913
X6.0039Y-4.4488
X6.0039Y-4.6063
X6.0236Y-4.9213
X6.0236Y-5.0197
X6.0236Y-5.1969
X6.0433Y-4.8819
X6.0827Y-5.0197
X6.122Y-3.7598
X6.1811Y-5.2165
X6.2087Y-5.1772
X6.2402Y-5.1181
X6.3189Y-3.7598
X6.3976Y-4.9016
X6.4567Y-4.9016
X6.5354Y-3.7598
X6.5463Y-5.1772
X6.5748Y-3.128
X6.5748Y-3.2264
X6.6142Y-3.1299
X6.6142Y-3.2283
X6.6142Y-5.0197
X6.6142Y-5.1969
X6.6732Y-5.0197
X6.6929Y-3.7598
X6.752Y-5.2165
X6.7913Y-5.1772
X6.8504Y-3.7598
X7.0079Y-3.7598
X7.0079Y-4.9213
X7.0669Y-4.9213
X7.126Y-1.9291
X7.126Y-2.2047
X7.126Y-2.3622
X7.126Y-2.5197
X7.126Y-2.6772
X7.126Y-2.7953
X7.126Y-2.9528
X7.126Y-3.1496
X7.126Y-3.5039
X7.126Y-3.622
X7.126Y-3.7598
X7.1435Y-5.1614
X7.2047Y-5.0197
X7.2047Y-5.1969
X7.2441Y-3.7402
X7.2638Y-5.0197
X7.2835Y-3.7402
X7.3425Y-5.2165
X7.3819Y-5.1772
X7.5787Y-4.9213
X7.5984Y-1.9291
X7.6378Y-4.9213
X7.7341Y-5.1614
X7.7953Y-5.0197
X7.7953Y-5.1969
X7.8543Y-5.0197
X7.9685Y-5.1535
X7.9724Y-5.1969
X8.0197Y-5.1063
X8.0197Y-5.248
X8.0709Y-1.9291
X8.1063Y-3.6811
X8.1102Y-3.6437
X8.1299Y-2.4213
X8.1299Y-2.4823
X8.189Y-4.8622
X8.2283Y-4.372
X8.252Y-4.8661
X8.2677Y-4.3898
X8.3246Y-5.1614
X8.3268Y-2.9921
X8.3268Y-3.0531
X8.3268Y-3.563
X8.3268Y-3.624
X8.3268Y-4.1339
X8.3268Y-4.1949
X8.3268Y-4.7047
X8.3268Y-4.7657
X8.3858Y-1.811
X8.3858Y-5.0197
X8.3858Y-5.1969
X8.4252Y-5.1969
X8.4449Y-5.0197
X8.5039Y-2.187
X8.5039Y-2.2244
X8.5039Y-2.7579
X8.5039Y-2.7953
X8.5039Y-3.3287
X8.5039Y-3.3661
X8.5039Y-3.8996
X8.5039Y-3.937
X8.5039Y-4.4705
X8.5039Y-4.5079
X8.5827Y-3.1732
X8.5827Y-3.7559
X8.5827Y-4.3031
X8.5873Y-4.878
X8.5945Y-2.5945
X8.6024Y-4.3898
X8.6198Y-2.5758
X8.622Y-3.811
X8.626Y-3.2402
X8.6457Y-2.2838
X8.6457Y-2.8565
X8.6457Y-3.4273
X8.6457Y-3.9982
X8.6457Y-4.5691
X8.6614Y-1.811
X8.6614Y-4.3917
X8.6732Y-2.627
X8.6781Y-2.7972
X8.6791Y-2.2244
X8.6791Y-3.3681
X8.6791Y-3.935
X8.6791Y-4.5098
X8.6811Y-2.187
X8.6811Y-2.7579
X8.6811Y-3.25
X8.6811Y-3.3287
X8.6811Y-3.8209
X8.6811Y-3.8996
X8.6811Y-4.4705
X8.7205Y-2.6004
X8.7205Y-2.6398
X8.7205Y-3.1732
X8.7205Y-3.7559
X8.7205Y-4.3031
X8.8189Y-1.811
X8.8189Y-2.5807
X8.8189Y-3.1516
X8.8189Y-3.7421
X8.8189Y-4.2933
X8.9488Y-5.5433
X8.9685Y-1.6496
X8.9843Y-5.4724
X8.9882Y-5.622
X9.0039Y-1.5787
X9.0079Y-1.7283
X9.0748Y-5.4685
X9.0866Y-5.6142
X9.0945Y-1.5748
X9.1063Y-1.7205
X9.126Y-5.5433
X9.1457Y-1.6496
T2
X2.0276Y-3.6478
X2.0276Y-3.7266
X2.1102Y-3.9724
X2.1102Y-4.0512
X2.2638Y-3.6478
X2.2638Y-3.7266
X2.3465Y-3.9724
X2.3465Y-4.0512
T3
X1.3386Y-2.2835
X1.3386Y-2.3819
X1.3386Y-2.4803
X1.3465Y-3.5787
X1.3465Y-3.6772
X1.3465Y-3.7756
X1.3465Y-3.874
X1.3465Y-3.9724
X1.3465Y-4.0709
X1.3465Y-4.1693
X1.3465Y-4.2677
T4
X1.2598Y-5.2953
X1.4961Y-1.6929
X3.4646Y-2.1457
X5.4331Y-4.6457
X5.685Y-2.122
X6.0236Y-1.829
X6.0236Y-1.929
X6.0236Y-2.029
X6.0236Y-2.129
X6.0236Y-2.229
X6.0236Y-2.329
X6.0236Y-2.429
X6.0236Y-2.529
X6.0236Y-2.629
X6.0236Y-2.729
X6.0236Y-2.829
X6.0236Y-2.929
X6.0236Y-3.029
X6.0236Y-3.129
X6.0236Y-3.229
X6.0236Y-3.329
X6.024Y-1.829
X6.024Y-1.929
X6.024Y-2.029
X6.024Y-2.129
X6.024Y-2.229
X6.024Y-2.329
X6.024Y-2.429
X6.024Y-2.529
X6.024Y-2.629
X6.024Y-2.729
X6.024Y-2.829
X6.024Y-2.929
X6.024Y-3.029
X6.024Y-3.129
X6.024Y-3.229
X6.024Y-3.329
X6.824Y-2.229
X6.824Y-2.229
X6.824Y-2.329
X6.824Y-2.329
X6.824Y-2.429
X6.824Y-2.429
X6.824Y-2.529
X6.824Y-2.529
X6.824Y-2.629
X6.824Y-2.629
X6.824Y-2.729
X6.824Y-2.729
X6.824Y-2.829
X6.824Y-2.829
X6.824Y-2.929
X6.824Y-2.929
X6.824Y-3.029
X6.824Y-3.029
X6.824Y-3.129
X6.824Y-3.129
X6.824Y-3.229
X6.824Y-3.229
X6.824Y-3.329
X6.824Y-3.329
X8.119Y-3.326
X8.7795Y-1.6929
X9.0354Y-5.2756
T5
X5.8236Y-5.5315
X5.9236Y-5.5315
X6.0236Y-5.5315
X6.1236Y-5.5315
X6.4142Y-5.5315
X6.5142Y-5.5315
X6.6142Y-5.5315
X6.7142Y-5.5315
X7.0047Y-5.5315
X7.1047Y-5.5315
X7.2047Y-5.5315
X7.3047Y-5.5315
X7.5953Y-5.5315
X7.6953Y-5.5315
X7.7953Y-5.5315
X7.8953Y-5.5315
X8.1858Y-5.5315
X8.2858Y-5.5315
X8.3858Y-5.5315
X8.4858Y-5.5315
X9.0157Y-2.1244
X9.0157Y-2.2244
X9.0157Y-2.3244
X9.0157Y-2.4244
X9.0157Y-2.6953
X9.0157Y-2.7953
X9.0157Y-2.8953
X9.0157Y-2.9953
X9.0157Y-3.2661
X9.0157Y-3.3661
X9.0157Y-3.4661
X9.0157Y-3.5661
X9.0157Y-3.837
X9.0157Y-3.937
X9.0157Y-4.037
X9.0157Y-4.137
X9.0157Y-4.4079
X9.0157Y-4.5079
X9.0157Y-4.6079
X9.0157Y-4.7079
T6
X4.1929Y-3.3661
X4.1929Y-3.6614
X4.1969Y-4.1339
X4.1969Y-4.4291
X4.9409Y-4.1339
X4.9409Y-4.4291
X4.9488Y-3.3653
X4.9488Y-3.6605
T7
X5.0591Y-2.874
X5.685Y-3.9173
X5.752Y-1.7677
T8
X1.263Y-1.6535
X1.263Y-5.5512
X9.0354Y-5.5433
X9.0551Y-1.6535
M30
