%TF.GenerationSoftware,KiCad,Pcbnew,9.0.7*%
%TF.CreationDate,2026-04-07T15:03:27-04:00*%
%TF.ProjectId,BUCK_BOOST_42W,4255434b-5f42-44f4-9f53-545f3432572e,rev?*%
%TF.SameCoordinates,Original*%
%TF.FileFunction,Soldermask,Top*%
%TF.FilePolarity,Negative*%
%FSLAX46Y46*%
G04 Gerber Fmt 4.6, Leading zero omitted, Abs format (unit mm)*
G04 Created by KiCad (PCBNEW 9.0.7) date 2026-04-07 15:03:27*
%MOMM*%
%LPD*%
G01*
G04 APERTURE LIST*
G04 Aperture macros list*
%AMRoundRect*
0 Rectangle with rounded corners*
0 $1 Rounding radius*
0 $2 $3 $4 $5 $6 $7 $8 $9 X,Y pos of 4 corners*
0 Add a 4 corners polygon primitive as box body*
4,1,4,$2,$3,$4,$5,$6,$7,$8,$9,$2,$3,0*
0 Add four circle primitives for the rounded corners*
1,1,$1+$1,$2,$3*
1,1,$1+$1,$4,$5*
1,1,$1+$1,$6,$7*
1,1,$1+$1,$8,$9*
0 Add four rect primitives between the rounded corners*
20,1,$1+$1,$2,$3,$4,$5,0*
20,1,$1+$1,$4,$5,$6,$7,0*
20,1,$1+$1,$6,$7,$8,$9,0*
20,1,$1+$1,$8,$9,$2,$3,0*%
%AMFreePoly0*
4,1,17,2.675000,1.605000,1.875000,1.605000,1.875000,0.935000,2.675000,0.935000,2.675000,0.335000,1.875000,0.335000,1.875000,-0.335000,2.675000,-0.335000,2.675000,-0.935000,1.875000,-0.935000,1.875000,-1.605000,2.675000,-1.605000,2.675000,-2.205000,-1.875000,-2.205000,-1.875000,2.205000,2.675000,2.205000,2.675000,1.605000,2.675000,1.605000,$1*%
G04 Aperture macros list end*
%ADD10C,0.300000*%
%ADD11RoundRect,0.250000X-1.050000X-0.550000X1.050000X-0.550000X1.050000X0.550000X-1.050000X0.550000X0*%
%ADD12O,2.600000X1.600000*%
%ADD13C,1.700000*%
%ADD14R,1.700000X1.700000*%
%ADD15RoundRect,0.075000X0.075000X-0.650000X0.075000X0.650000X-0.075000X0.650000X-0.075000X-0.650000X0*%
%ADD16RoundRect,0.225000X-0.250000X0.225000X-0.250000X-0.225000X0.250000X-0.225000X0.250000X0.225000X0*%
%ADD17RoundRect,0.250000X0.900000X-1.000000X0.900000X1.000000X-0.900000X1.000000X-0.900000X-1.000000X0*%
%ADD18RoundRect,0.250000X-0.250000X-1.450000X0.250000X-1.450000X0.250000X1.450000X-0.250000X1.450000X0*%
%ADD19RoundRect,0.475000X2.075000X-0.475000X2.075000X0.475000X-2.075000X0.475000X-2.075000X-0.475000X0*%
%ADD20RoundRect,0.062500X-0.375000X-0.062500X0.375000X-0.062500X0.375000X0.062500X-0.375000X0.062500X0*%
%ADD21RoundRect,0.062500X-0.062500X-0.375000X0.062500X-0.375000X0.062500X0.375000X-0.062500X0.375000X0*%
%ADD22R,2.550000X3.550000*%
%ADD23R,5.000000X5.000000*%
%ADD24FreePoly0,90.000000*%
%ADD25RoundRect,0.125000X0.125000X-0.300000X0.125000X0.300000X-0.125000X0.300000X-0.125000X-0.300000X0*%
%ADD26FreePoly0,270.000000*%
%ADD27RoundRect,0.125000X-0.125000X0.300000X-0.125000X-0.300000X0.125000X-0.300000X0.125000X0.300000X0*%
%ADD28RoundRect,0.075000X0.650000X0.075000X-0.650000X0.075000X-0.650000X-0.075000X0.650000X-0.075000X0*%
%ADD29C,1.000000*%
%ADD30R,2.030000X1.730000*%
%ADD31O,2.030000X1.730000*%
%ADD32R,1.730000X2.030000*%
%ADD33O,1.730000X2.030000*%
%ADD34RoundRect,0.250000X0.550000X-0.550000X0.550000X0.550000X-0.550000X0.550000X-0.550000X-0.550000X0*%
%ADD35C,1.600000*%
%ADD36RoundRect,0.225000X0.250000X-0.225000X0.250000X0.225000X-0.250000X0.225000X-0.250000X-0.225000X0*%
%ADD37RoundRect,0.200000X0.200000X0.275000X-0.200000X0.275000X-0.200000X-0.275000X0.200000X-0.275000X0*%
%ADD38RoundRect,0.250000X-1.450000X0.250000X-1.450000X-0.250000X1.450000X-0.250000X1.450000X0.250000X0*%
%ADD39RoundRect,0.225000X0.225000X0.250000X-0.225000X0.250000X-0.225000X-0.250000X0.225000X-0.250000X0*%
%ADD40RoundRect,0.200000X-0.275000X0.200000X-0.275000X-0.200000X0.275000X-0.200000X0.275000X0.200000X0*%
%ADD41RoundRect,0.250000X-0.650000X0.325000X-0.650000X-0.325000X0.650000X-0.325000X0.650000X0.325000X0*%
%ADD42RoundRect,0.250000X-0.450000X0.262500X-0.450000X-0.262500X0.450000X-0.262500X0.450000X0.262500X0*%
%ADD43RoundRect,0.250001X0.949999X-0.949999X0.949999X0.949999X-0.949999X0.949999X-0.949999X-0.949999X0*%
%ADD44C,2.400000*%
%ADD45RoundRect,0.200000X0.275000X-0.200000X0.275000X0.200000X-0.275000X0.200000X-0.275000X-0.200000X0*%
%ADD46C,5.600000*%
%ADD47C,2.000000*%
%ADD48RoundRect,0.250001X-0.949999X0.949999X-0.949999X-0.949999X0.949999X-0.949999X0.949999X0.949999X0*%
%ADD49RoundRect,0.150000X-0.512500X-0.150000X0.512500X-0.150000X0.512500X0.150000X-0.512500X0.150000X0*%
%ADD50RoundRect,0.250000X-0.262500X-0.450000X0.262500X-0.450000X0.262500X0.450000X-0.262500X0.450000X0*%
%ADD51RoundRect,0.075000X-0.650000X-0.075000X0.650000X-0.075000X0.650000X0.075000X-0.650000X0.075000X0*%
%ADD52RoundRect,0.225000X-0.225000X-0.250000X0.225000X-0.250000X0.225000X0.250000X-0.225000X0.250000X0*%
%ADD53RoundRect,0.250000X-0.325000X-0.650000X0.325000X-0.650000X0.325000X0.650000X-0.325000X0.650000X0*%
%ADD54RoundRect,0.250000X-0.725000X0.600000X-0.725000X-0.600000X0.725000X-0.600000X0.725000X0.600000X0*%
%ADD55O,1.950000X1.700000*%
%ADD56RoundRect,0.112500X-0.187500X-0.112500X0.187500X-0.112500X0.187500X0.112500X-0.187500X0.112500X0*%
%ADD57C,3.000000*%
%ADD58RoundRect,0.250000X-0.550000X0.550000X-0.550000X-0.550000X0.550000X-0.550000X0.550000X0.550000X0*%
%ADD59RoundRect,0.250000X0.650000X-0.325000X0.650000X0.325000X-0.650000X0.325000X-0.650000X-0.325000X0*%
%ADD60RoundRect,0.200000X-0.200000X-0.275000X0.200000X-0.275000X0.200000X0.275000X-0.200000X0.275000X0*%
%ADD61RoundRect,0.162500X-0.447500X-0.162500X0.447500X-0.162500X0.447500X0.162500X-0.447500X0.162500X0*%
%ADD62C,0.600000*%
G04 APERTURE END LIST*
D10*
X40840225Y-39300828D02*
X41340225Y-40800828D01*
X41340225Y-40800828D02*
X41840225Y-39300828D01*
X43125939Y-40800828D02*
X42268796Y-40800828D01*
X42697367Y-40800828D02*
X42697367Y-39300828D01*
X42697367Y-39300828D02*
X42554510Y-39515114D01*
X42554510Y-39515114D02*
X42411653Y-39657971D01*
X42411653Y-39657971D02*
X42268796Y-39729400D01*
X45554510Y-39800828D02*
X45554510Y-40800828D01*
X45197367Y-39229400D02*
X44840224Y-40300828D01*
X44840224Y-40300828D02*
X45768795Y-40300828D01*
X46268795Y-39443685D02*
X46340223Y-39372257D01*
X46340223Y-39372257D02*
X46483081Y-39300828D01*
X46483081Y-39300828D02*
X46840223Y-39300828D01*
X46840223Y-39300828D02*
X46983081Y-39372257D01*
X46983081Y-39372257D02*
X47054509Y-39443685D01*
X47054509Y-39443685D02*
X47125938Y-39586542D01*
X47125938Y-39586542D02*
X47125938Y-39729400D01*
X47125938Y-39729400D02*
X47054509Y-39943685D01*
X47054509Y-39943685D02*
X46197366Y-40800828D01*
X46197366Y-40800828D02*
X47125938Y-40800828D01*
X47625937Y-39300828D02*
X47983080Y-40800828D01*
X47983080Y-40800828D02*
X48268794Y-39729400D01*
X48268794Y-39729400D02*
X48554509Y-40800828D01*
X48554509Y-40800828D02*
X48911652Y-39300828D01*
X51125937Y-40015114D02*
X51340223Y-40086542D01*
X51340223Y-40086542D02*
X51411652Y-40157971D01*
X51411652Y-40157971D02*
X51483080Y-40300828D01*
X51483080Y-40300828D02*
X51483080Y-40515114D01*
X51483080Y-40515114D02*
X51411652Y-40657971D01*
X51411652Y-40657971D02*
X51340223Y-40729400D01*
X51340223Y-40729400D02*
X51197366Y-40800828D01*
X51197366Y-40800828D02*
X50625937Y-40800828D01*
X50625937Y-40800828D02*
X50625937Y-39300828D01*
X50625937Y-39300828D02*
X51125937Y-39300828D01*
X51125937Y-39300828D02*
X51268795Y-39372257D01*
X51268795Y-39372257D02*
X51340223Y-39443685D01*
X51340223Y-39443685D02*
X51411652Y-39586542D01*
X51411652Y-39586542D02*
X51411652Y-39729400D01*
X51411652Y-39729400D02*
X51340223Y-39872257D01*
X51340223Y-39872257D02*
X51268795Y-39943685D01*
X51268795Y-39943685D02*
X51125937Y-40015114D01*
X51125937Y-40015114D02*
X50625937Y-40015114D01*
X52768795Y-39800828D02*
X52768795Y-40800828D01*
X52125937Y-39800828D02*
X52125937Y-40586542D01*
X52125937Y-40586542D02*
X52197366Y-40729400D01*
X52197366Y-40729400D02*
X52340223Y-40800828D01*
X52340223Y-40800828D02*
X52554509Y-40800828D01*
X52554509Y-40800828D02*
X52697366Y-40729400D01*
X52697366Y-40729400D02*
X52768795Y-40657971D01*
X54125938Y-40729400D02*
X53983080Y-40800828D01*
X53983080Y-40800828D02*
X53697366Y-40800828D01*
X53697366Y-40800828D02*
X53554509Y-40729400D01*
X53554509Y-40729400D02*
X53483080Y-40657971D01*
X53483080Y-40657971D02*
X53411652Y-40515114D01*
X53411652Y-40515114D02*
X53411652Y-40086542D01*
X53411652Y-40086542D02*
X53483080Y-39943685D01*
X53483080Y-39943685D02*
X53554509Y-39872257D01*
X53554509Y-39872257D02*
X53697366Y-39800828D01*
X53697366Y-39800828D02*
X53983080Y-39800828D01*
X53983080Y-39800828D02*
X54125938Y-39872257D01*
X54768794Y-40800828D02*
X54768794Y-39300828D01*
X54911652Y-40229400D02*
X55340223Y-40800828D01*
X55340223Y-39800828D02*
X54768794Y-40372257D01*
X57625937Y-40015114D02*
X57840223Y-40086542D01*
X57840223Y-40086542D02*
X57911652Y-40157971D01*
X57911652Y-40157971D02*
X57983080Y-40300828D01*
X57983080Y-40300828D02*
X57983080Y-40515114D01*
X57983080Y-40515114D02*
X57911652Y-40657971D01*
X57911652Y-40657971D02*
X57840223Y-40729400D01*
X57840223Y-40729400D02*
X57697366Y-40800828D01*
X57697366Y-40800828D02*
X57125937Y-40800828D01*
X57125937Y-40800828D02*
X57125937Y-39300828D01*
X57125937Y-39300828D02*
X57625937Y-39300828D01*
X57625937Y-39300828D02*
X57768795Y-39372257D01*
X57768795Y-39372257D02*
X57840223Y-39443685D01*
X57840223Y-39443685D02*
X57911652Y-39586542D01*
X57911652Y-39586542D02*
X57911652Y-39729400D01*
X57911652Y-39729400D02*
X57840223Y-39872257D01*
X57840223Y-39872257D02*
X57768795Y-39943685D01*
X57768795Y-39943685D02*
X57625937Y-40015114D01*
X57625937Y-40015114D02*
X57125937Y-40015114D01*
X58840223Y-40800828D02*
X58697366Y-40729400D01*
X58697366Y-40729400D02*
X58625937Y-40657971D01*
X58625937Y-40657971D02*
X58554509Y-40515114D01*
X58554509Y-40515114D02*
X58554509Y-40086542D01*
X58554509Y-40086542D02*
X58625937Y-39943685D01*
X58625937Y-39943685D02*
X58697366Y-39872257D01*
X58697366Y-39872257D02*
X58840223Y-39800828D01*
X58840223Y-39800828D02*
X59054509Y-39800828D01*
X59054509Y-39800828D02*
X59197366Y-39872257D01*
X59197366Y-39872257D02*
X59268795Y-39943685D01*
X59268795Y-39943685D02*
X59340223Y-40086542D01*
X59340223Y-40086542D02*
X59340223Y-40515114D01*
X59340223Y-40515114D02*
X59268795Y-40657971D01*
X59268795Y-40657971D02*
X59197366Y-40729400D01*
X59197366Y-40729400D02*
X59054509Y-40800828D01*
X59054509Y-40800828D02*
X58840223Y-40800828D01*
X60197366Y-40800828D02*
X60054509Y-40729400D01*
X60054509Y-40729400D02*
X59983080Y-40657971D01*
X59983080Y-40657971D02*
X59911652Y-40515114D01*
X59911652Y-40515114D02*
X59911652Y-40086542D01*
X59911652Y-40086542D02*
X59983080Y-39943685D01*
X59983080Y-39943685D02*
X60054509Y-39872257D01*
X60054509Y-39872257D02*
X60197366Y-39800828D01*
X60197366Y-39800828D02*
X60411652Y-39800828D01*
X60411652Y-39800828D02*
X60554509Y-39872257D01*
X60554509Y-39872257D02*
X60625938Y-39943685D01*
X60625938Y-39943685D02*
X60697366Y-40086542D01*
X60697366Y-40086542D02*
X60697366Y-40515114D01*
X60697366Y-40515114D02*
X60625938Y-40657971D01*
X60625938Y-40657971D02*
X60554509Y-40729400D01*
X60554509Y-40729400D02*
X60411652Y-40800828D01*
X60411652Y-40800828D02*
X60197366Y-40800828D01*
X61268795Y-40729400D02*
X61411652Y-40800828D01*
X61411652Y-40800828D02*
X61697366Y-40800828D01*
X61697366Y-40800828D02*
X61840223Y-40729400D01*
X61840223Y-40729400D02*
X61911652Y-40586542D01*
X61911652Y-40586542D02*
X61911652Y-40515114D01*
X61911652Y-40515114D02*
X61840223Y-40372257D01*
X61840223Y-40372257D02*
X61697366Y-40300828D01*
X61697366Y-40300828D02*
X61483081Y-40300828D01*
X61483081Y-40300828D02*
X61340223Y-40229400D01*
X61340223Y-40229400D02*
X61268795Y-40086542D01*
X61268795Y-40086542D02*
X61268795Y-40015114D01*
X61268795Y-40015114D02*
X61340223Y-39872257D01*
X61340223Y-39872257D02*
X61483081Y-39800828D01*
X61483081Y-39800828D02*
X61697366Y-39800828D01*
X61697366Y-39800828D02*
X61840223Y-39872257D01*
X62340224Y-39800828D02*
X62911652Y-39800828D01*
X62554509Y-39300828D02*
X62554509Y-40586542D01*
X62554509Y-40586542D02*
X62625938Y-40729400D01*
X62625938Y-40729400D02*
X62768795Y-40800828D01*
X62768795Y-40800828D02*
X62911652Y-40800828D01*
X65340224Y-40800828D02*
X64483081Y-40800828D01*
X64911652Y-40800828D02*
X64911652Y-39300828D01*
X64911652Y-39300828D02*
X64768795Y-39515114D01*
X64768795Y-39515114D02*
X64625938Y-39657971D01*
X64625938Y-39657971D02*
X64483081Y-39729400D01*
X66268795Y-39300828D02*
X66411652Y-39300828D01*
X66411652Y-39300828D02*
X66554509Y-39372257D01*
X66554509Y-39372257D02*
X66625938Y-39443685D01*
X66625938Y-39443685D02*
X66697366Y-39586542D01*
X66697366Y-39586542D02*
X66768795Y-39872257D01*
X66768795Y-39872257D02*
X66768795Y-40229400D01*
X66768795Y-40229400D02*
X66697366Y-40515114D01*
X66697366Y-40515114D02*
X66625938Y-40657971D01*
X66625938Y-40657971D02*
X66554509Y-40729400D01*
X66554509Y-40729400D02*
X66411652Y-40800828D01*
X66411652Y-40800828D02*
X66268795Y-40800828D01*
X66268795Y-40800828D02*
X66125938Y-40729400D01*
X66125938Y-40729400D02*
X66054509Y-40657971D01*
X66054509Y-40657971D02*
X65983080Y-40515114D01*
X65983080Y-40515114D02*
X65911652Y-40229400D01*
X65911652Y-40229400D02*
X65911652Y-39872257D01*
X65911652Y-39872257D02*
X65983080Y-39586542D01*
X65983080Y-39586542D02*
X66054509Y-39443685D01*
X66054509Y-39443685D02*
X66125938Y-39372257D01*
X66125938Y-39372257D02*
X66268795Y-39300828D01*
X67411651Y-40229400D02*
X68554509Y-40229400D01*
X69054509Y-39800828D02*
X69625937Y-39800828D01*
X69268794Y-40800828D02*
X69268794Y-39515114D01*
X69268794Y-39515114D02*
X69340223Y-39372257D01*
X69340223Y-39372257D02*
X69483080Y-39300828D01*
X69483080Y-39300828D02*
X69625937Y-39300828D01*
X70768795Y-40800828D02*
X70768795Y-40015114D01*
X70768795Y-40015114D02*
X70697366Y-39872257D01*
X70697366Y-39872257D02*
X70554509Y-39800828D01*
X70554509Y-39800828D02*
X70268795Y-39800828D01*
X70268795Y-39800828D02*
X70125937Y-39872257D01*
X70768795Y-40729400D02*
X70625937Y-40800828D01*
X70625937Y-40800828D02*
X70268795Y-40800828D01*
X70268795Y-40800828D02*
X70125937Y-40729400D01*
X70125937Y-40729400D02*
X70054509Y-40586542D01*
X70054509Y-40586542D02*
X70054509Y-40443685D01*
X70054509Y-40443685D02*
X70125937Y-40300828D01*
X70125937Y-40300828D02*
X70268795Y-40229400D01*
X70268795Y-40229400D02*
X70625937Y-40229400D01*
X70625937Y-40229400D02*
X70768795Y-40157971D01*
X71483080Y-39800828D02*
X71483080Y-40800828D01*
X71483080Y-39943685D02*
X71554509Y-39872257D01*
X71554509Y-39872257D02*
X71697366Y-39800828D01*
X71697366Y-39800828D02*
X71911652Y-39800828D01*
X71911652Y-39800828D02*
X72054509Y-39872257D01*
X72054509Y-39872257D02*
X72125938Y-40015114D01*
X72125938Y-40015114D02*
X72125938Y-40800828D01*
X73911652Y-40372257D02*
X74625938Y-40372257D01*
X73768795Y-40800828D02*
X74268795Y-39300828D01*
X74268795Y-39300828D02*
X74768795Y-40800828D01*
X75268794Y-40800828D02*
X75268794Y-39800828D01*
X75268794Y-39300828D02*
X75197366Y-39372257D01*
X75197366Y-39372257D02*
X75268794Y-39443685D01*
X75268794Y-39443685D02*
X75340223Y-39372257D01*
X75340223Y-39372257D02*
X75268794Y-39300828D01*
X75268794Y-39300828D02*
X75268794Y-39443685D01*
X75983080Y-40800828D02*
X75983080Y-39800828D01*
X75983080Y-40086542D02*
X76054509Y-39943685D01*
X76054509Y-39943685D02*
X76125938Y-39872257D01*
X76125938Y-39872257D02*
X76268795Y-39800828D01*
X76268795Y-39800828D02*
X76411652Y-39800828D01*
X78054508Y-40800828D02*
X78054508Y-39300828D01*
X78054508Y-39300828D02*
X78625937Y-39300828D01*
X78625937Y-39300828D02*
X78768794Y-39372257D01*
X78768794Y-39372257D02*
X78840223Y-39443685D01*
X78840223Y-39443685D02*
X78911651Y-39586542D01*
X78911651Y-39586542D02*
X78911651Y-39800828D01*
X78911651Y-39800828D02*
X78840223Y-39943685D01*
X78840223Y-39943685D02*
X78768794Y-40015114D01*
X78768794Y-40015114D02*
X78625937Y-40086542D01*
X78625937Y-40086542D02*
X78054508Y-40086542D01*
X80197366Y-39800828D02*
X80197366Y-40800828D01*
X79554508Y-39800828D02*
X79554508Y-40586542D01*
X79554508Y-40586542D02*
X79625937Y-40729400D01*
X79625937Y-40729400D02*
X79768794Y-40800828D01*
X79768794Y-40800828D02*
X79983080Y-40800828D01*
X79983080Y-40800828D02*
X80125937Y-40729400D01*
X80125937Y-40729400D02*
X80197366Y-40657971D01*
X80911651Y-40800828D02*
X80911651Y-39800828D01*
X80911651Y-40086542D02*
X80983080Y-39943685D01*
X80983080Y-39943685D02*
X81054509Y-39872257D01*
X81054509Y-39872257D02*
X81197366Y-39800828D01*
X81197366Y-39800828D02*
X81340223Y-39800828D01*
X81840222Y-40800828D02*
X81840222Y-39800828D01*
X81840222Y-39300828D02*
X81768794Y-39372257D01*
X81768794Y-39372257D02*
X81840222Y-39443685D01*
X81840222Y-39443685D02*
X81911651Y-39372257D01*
X81911651Y-39372257D02*
X81840222Y-39300828D01*
X81840222Y-39300828D02*
X81840222Y-39443685D01*
X82340223Y-39800828D02*
X82911651Y-39800828D01*
X82554508Y-40800828D02*
X82554508Y-39515114D01*
X82554508Y-39515114D02*
X82625937Y-39372257D01*
X82625937Y-39372257D02*
X82768794Y-39300828D01*
X82768794Y-39300828D02*
X82911651Y-39300828D01*
X83411651Y-40800828D02*
X83411651Y-39800828D01*
X83411651Y-39300828D02*
X83340223Y-39372257D01*
X83340223Y-39372257D02*
X83411651Y-39443685D01*
X83411651Y-39443685D02*
X83483080Y-39372257D01*
X83483080Y-39372257D02*
X83411651Y-39300828D01*
X83411651Y-39300828D02*
X83411651Y-39443685D01*
X84697366Y-40729400D02*
X84554509Y-40800828D01*
X84554509Y-40800828D02*
X84268795Y-40800828D01*
X84268795Y-40800828D02*
X84125937Y-40729400D01*
X84125937Y-40729400D02*
X84054509Y-40586542D01*
X84054509Y-40586542D02*
X84054509Y-40015114D01*
X84054509Y-40015114D02*
X84125937Y-39872257D01*
X84125937Y-39872257D02*
X84268795Y-39800828D01*
X84268795Y-39800828D02*
X84554509Y-39800828D01*
X84554509Y-39800828D02*
X84697366Y-39872257D01*
X84697366Y-39872257D02*
X84768795Y-40015114D01*
X84768795Y-40015114D02*
X84768795Y-40157971D01*
X84768795Y-40157971D02*
X84054509Y-40300828D01*
X85411651Y-40800828D02*
X85411651Y-39800828D01*
X85411651Y-40086542D02*
X85483080Y-39943685D01*
X85483080Y-39943685D02*
X85554509Y-39872257D01*
X85554509Y-39872257D02*
X85697366Y-39800828D01*
X85697366Y-39800828D02*
X85840223Y-39800828D01*
D11*
%TO.C,A1*%
X153309600Y-46456600D03*
D12*
X153309600Y-48996600D03*
X153309600Y-51536600D03*
X153309600Y-54076600D03*
X153309600Y-56616600D03*
X153309600Y-59156600D03*
X153309600Y-61696600D03*
X153309600Y-64236600D03*
X153309600Y-66776600D03*
X153309600Y-69316600D03*
X153309600Y-71856600D03*
X153309600Y-74396600D03*
X153309600Y-76936600D03*
X153309600Y-79476600D03*
X153309600Y-82016600D03*
X153309600Y-84556600D03*
X173029600Y-84556600D03*
X173029600Y-82016600D03*
X173029600Y-79476600D03*
X173029600Y-76936600D03*
X173029600Y-74396600D03*
X173029600Y-71856600D03*
X173029600Y-69316600D03*
X173029600Y-66776600D03*
X173029600Y-64236600D03*
X173029600Y-61696600D03*
X173029600Y-59156600D03*
X173029600Y-56616600D03*
%TD*%
D13*
%TO.C,J17*%
X117340000Y-49100000D03*
D14*
X114800000Y-49100000D03*
%TD*%
D13*
%TO.C,J16*%
X140365000Y-101000000D03*
D14*
X137825000Y-101000000D03*
%TD*%
%TO.C,J15*%
X137825000Y-97000000D03*
D13*
X140365000Y-97000000D03*
%TD*%
D15*
%TO.C,U2*%
X143200000Y-105900000D03*
X143700000Y-105900000D03*
X144200000Y-105900000D03*
X144700000Y-105900000D03*
X145200000Y-105900000D03*
X145200000Y-110300000D03*
X144700000Y-110300000D03*
X144200000Y-110300000D03*
X143700000Y-110300000D03*
X143200000Y-110300000D03*
%TD*%
D16*
%TO.C,C3*%
X146700000Y-105675000D03*
X146700000Y-104125000D03*
%TD*%
D17*
%TO.C,D3*%
X145600000Y-90300000D03*
X145600000Y-94600000D03*
%TD*%
D18*
%TO.C,R7*%
X142950000Y-99300000D03*
X144450000Y-99300000D03*
%TD*%
D19*
%TO.C,L2*%
X97700000Y-69975000D03*
X97700000Y-65775000D03*
%TD*%
D20*
%TO.C,U5*%
X71662500Y-114800000D03*
X71662500Y-115300000D03*
X71662500Y-115800000D03*
X71662500Y-116300000D03*
X71662500Y-116800000D03*
X71662500Y-117300000D03*
X71662500Y-117800000D03*
X71662500Y-118300000D03*
D21*
X72350000Y-118987500D03*
X72850000Y-118987500D03*
X73350000Y-118987500D03*
X73850000Y-118987500D03*
X74350000Y-118987500D03*
X74850000Y-118987500D03*
D20*
X75537500Y-118300000D03*
X75537500Y-117800000D03*
X75537500Y-117300000D03*
X75537500Y-116800000D03*
X75537500Y-116300000D03*
X75537500Y-115800000D03*
X75537500Y-115300000D03*
X75537500Y-114800000D03*
D21*
X74850000Y-114112500D03*
X74350000Y-114112500D03*
X73850000Y-114112500D03*
X73350000Y-114112500D03*
X72850000Y-114112500D03*
X72350000Y-114112500D03*
D22*
X73600000Y-116550000D03*
%TD*%
D23*
%TO.C,L1*%
X74350000Y-71900000D03*
X69850000Y-88900000D03*
X78850000Y-88900000D03*
%TD*%
D24*
%TO.C,Q4*%
X77605000Y-94825000D03*
D25*
X75700000Y-98375000D03*
X76970000Y-98375000D03*
X78240000Y-98375000D03*
X79510000Y-98375000D03*
%TD*%
D26*
%TO.C,Q3*%
X83395000Y-96125000D03*
D27*
X85300000Y-92575000D03*
X84030000Y-92575000D03*
X82760000Y-92575000D03*
X81490000Y-92575000D03*
%TD*%
D24*
%TO.C,Q2*%
X71095000Y-94825000D03*
D25*
X69190000Y-98375000D03*
X70460000Y-98375000D03*
X71730000Y-98375000D03*
X73000000Y-98375000D03*
%TD*%
D26*
%TO.C,Q1*%
X65305000Y-96125000D03*
D27*
X67210000Y-92575000D03*
X65940000Y-92575000D03*
X64670000Y-92575000D03*
X63400000Y-92575000D03*
%TD*%
D28*
%TO.C,U3*%
X147200000Y-76500000D03*
X147200000Y-76000000D03*
X147200000Y-75500000D03*
X147200000Y-75000000D03*
X147200000Y-74500000D03*
X142800000Y-74500000D03*
X142800000Y-75000000D03*
X142800000Y-75500000D03*
X142800000Y-76000000D03*
X142800000Y-76500000D03*
%TD*%
D29*
%TO.C,TP26*%
X86600000Y-117400000D03*
%TD*%
D30*
%TO.C,J6*%
X229000000Y-97460000D03*
D31*
X229000000Y-100000000D03*
X229000000Y-102540000D03*
X229000000Y-105080000D03*
%TD*%
D32*
%TO.C,J10*%
X185540000Y-140500000D03*
D33*
X183000000Y-140500000D03*
X180460000Y-140500000D03*
X177920000Y-140500000D03*
%TD*%
D29*
%TO.C,TP51*%
X206500000Y-61500000D03*
%TD*%
D34*
%TO.C,C6*%
X57500000Y-94655113D03*
D35*
X57500000Y-92655113D03*
%TD*%
D36*
%TO.C,C1*%
X150000000Y-66000000D03*
X150000000Y-64450000D03*
%TD*%
D29*
%TO.C,TP1*%
X55000000Y-79500000D03*
%TD*%
D37*
%TO.C,R11*%
X64225000Y-111500000D03*
X62575000Y-111500000D03*
%TD*%
D29*
%TO.C,TP58*%
X224000000Y-102500000D03*
%TD*%
%TO.C,TP65*%
X178000000Y-125000000D03*
%TD*%
%TO.C,TP41*%
X72800000Y-127500000D03*
%TD*%
D38*
%TO.C,R23*%
X76600000Y-100900000D03*
X76600000Y-102400000D03*
%TD*%
D29*
%TO.C,TP39*%
X71250000Y-124900000D03*
%TD*%
D39*
%TO.C,C2*%
X53775000Y-85500000D03*
X52225000Y-85500000D03*
%TD*%
D29*
%TO.C,TP56*%
X224000000Y-88000000D03*
%TD*%
%TO.C,TP43*%
X83700000Y-124000000D03*
%TD*%
D40*
%TO.C,R9*%
X69450000Y-111275000D03*
X69450000Y-112925000D03*
%TD*%
D41*
%TO.C,C11*%
X66900000Y-100100000D03*
X66900000Y-103050000D03*
%TD*%
D29*
%TO.C,TP17*%
X70650000Y-108600000D03*
%TD*%
%TO.C,TP61*%
X208000000Y-123500000D03*
%TD*%
%TO.C,TP60*%
X224000000Y-117000000D03*
%TD*%
D42*
%TO.C,R40*%
X183000000Y-128587500D03*
X183000000Y-130412500D03*
%TD*%
D29*
%TO.C,TP63*%
X192500000Y-125000000D03*
%TD*%
D32*
%TO.C,J11*%
X170540000Y-140500000D03*
D33*
X168000000Y-140500000D03*
X165460000Y-140500000D03*
X162920000Y-140500000D03*
%TD*%
D38*
%TO.C,R22*%
X72100000Y-100900000D03*
X72100000Y-102400000D03*
%TD*%
D29*
%TO.C,TP36*%
X87575000Y-89500000D03*
%TD*%
%TO.C,TP16*%
X115600000Y-98900000D03*
%TD*%
D39*
%TO.C,C52*%
X166275000Y-133000000D03*
X164725000Y-133000000D03*
%TD*%
D29*
%TO.C,TP23*%
X67350000Y-116300000D03*
%TD*%
D43*
%TO.C,C23*%
X106500000Y-93000000D03*
D44*
X106500000Y-85500000D03*
%TD*%
D45*
%TO.C,R27*%
X78450000Y-125550000D03*
X78450000Y-123900000D03*
%TD*%
D29*
%TO.C,TP50*%
X96000000Y-54600000D03*
%TD*%
D42*
%TO.C,R42*%
X153000000Y-128587500D03*
X153000000Y-130412500D03*
%TD*%
D46*
%TO.C,H4*%
X229500000Y-140800000D03*
%TD*%
D29*
%TO.C,TP8*%
X43500000Y-69500000D03*
%TD*%
%TO.C,TP68*%
X165500000Y-135500000D03*
%TD*%
D47*
%TO.C,TP73*%
X32000000Y-134500000D03*
%TD*%
D40*
%TO.C,R20*%
X74650000Y-124075000D03*
X74650000Y-125725000D03*
%TD*%
D29*
%TO.C,TP57*%
X211500000Y-105000000D03*
%TD*%
D45*
%TO.C,R4*%
X147500000Y-65950000D03*
X147500000Y-64300000D03*
%TD*%
D29*
%TO.C,TP53*%
X211500000Y-76000000D03*
%TD*%
D30*
%TO.C,J7*%
X229000000Y-111960000D03*
D31*
X229000000Y-114500000D03*
X229000000Y-117040000D03*
X229000000Y-119580000D03*
%TD*%
D29*
%TO.C,TP45*%
X99600000Y-125000000D03*
%TD*%
D42*
%TO.C,R39*%
X198000000Y-128587500D03*
X198000000Y-130412500D03*
%TD*%
D29*
%TO.C,TP9*%
X46000000Y-55500000D03*
%TD*%
D48*
%TO.C,C22*%
X125500000Y-105000000D03*
D44*
X125500000Y-112500000D03*
%TD*%
D49*
%TO.C,U6*%
X109937500Y-68925000D03*
X109937500Y-69875000D03*
X109937500Y-70825000D03*
X112212500Y-70825000D03*
X112212500Y-69875000D03*
X112212500Y-68925000D03*
%TD*%
D39*
%TO.C,C28*%
X64175000Y-116300000D03*
X62625000Y-116300000D03*
%TD*%
D50*
%TO.C,R37*%
X217087500Y-114500000D03*
X218912500Y-114500000D03*
%TD*%
D41*
%TO.C,C14*%
X85700000Y-100125000D03*
X85700000Y-103075000D03*
%TD*%
D51*
%TO.C,U15*%
X160300000Y-129500000D03*
X160300000Y-130000000D03*
X160300000Y-130500000D03*
X160300000Y-131000000D03*
X160300000Y-131500000D03*
X164700000Y-131500000D03*
X164700000Y-131000000D03*
X164700000Y-130500000D03*
X164700000Y-130000000D03*
X164700000Y-129500000D03*
%TD*%
D52*
%TO.C,C37*%
X111900000Y-67375000D03*
X113450000Y-67375000D03*
%TD*%
D39*
%TO.C,C53*%
X151275000Y-133000000D03*
X149725000Y-133000000D03*
%TD*%
D53*
%TO.C,C40*%
X98600000Y-58475000D03*
X101550000Y-58475000D03*
%TD*%
D39*
%TO.C,C26*%
X67925000Y-119900000D03*
X66375000Y-119900000D03*
%TD*%
D50*
%TO.C,R33*%
X217087500Y-56500000D03*
X218912500Y-56500000D03*
%TD*%
D29*
%TO.C,TP34*%
X78900000Y-118300000D03*
%TD*%
D50*
%TO.C,R36*%
X217087500Y-100000000D03*
X218912500Y-100000000D03*
%TD*%
D39*
%TO.C,C49*%
X211275000Y-133000000D03*
X209725000Y-133000000D03*
%TD*%
D29*
%TO.C,TP52*%
X224000000Y-59000000D03*
%TD*%
%TO.C,TP37*%
X82800000Y-105800000D03*
%TD*%
D48*
%TO.C,C21*%
X106600000Y-105000000D03*
D44*
X106600000Y-112500000D03*
%TD*%
D47*
%TO.C,TP71*%
X223000000Y-42500000D03*
%TD*%
D29*
%TO.C,TP67*%
X162500000Y-124500000D03*
%TD*%
%TO.C,TP6*%
X44000000Y-86000000D03*
%TD*%
D39*
%TO.C,C27*%
X67925000Y-121500000D03*
X66375000Y-121500000D03*
%TD*%
D45*
%TO.C,R17*%
X79700000Y-108725000D03*
X79700000Y-107075000D03*
%TD*%
D41*
%TO.C,C15*%
X88200000Y-100125000D03*
X88200000Y-103075000D03*
%TD*%
D29*
%TO.C,TP15*%
X95900000Y-95800000D03*
%TD*%
%TO.C,TP42*%
X71250000Y-122800000D03*
%TD*%
D40*
%TO.C,R15*%
X67850000Y-111275000D03*
X67850000Y-112925000D03*
%TD*%
D16*
%TO.C,C32*%
X77100000Y-117500000D03*
X77100000Y-119050000D03*
%TD*%
D39*
%TO.C,C50*%
X196275000Y-133000000D03*
X194725000Y-133000000D03*
%TD*%
D47*
%TO.C,TP76*%
X134750000Y-119500000D03*
%TD*%
D39*
%TO.C,C25*%
X64175000Y-117900000D03*
X62625000Y-117900000D03*
%TD*%
D54*
%TO.C,J2*%
X34000000Y-58000000D03*
D55*
X34000000Y-60500000D03*
X34000000Y-63000000D03*
%TD*%
D29*
%TO.C,TP20*%
X68350000Y-118100000D03*
%TD*%
D15*
%TO.C,U8*%
X218000000Y-78700000D03*
X218500000Y-78700000D03*
X219000000Y-78700000D03*
X219500000Y-78700000D03*
X220000000Y-78700000D03*
X220000000Y-74300000D03*
X219500000Y-74300000D03*
X219000000Y-74300000D03*
X218500000Y-74300000D03*
X218000000Y-74300000D03*
%TD*%
D29*
%TO.C,TP4*%
X42000000Y-111000000D03*
%TD*%
D52*
%TO.C,C30*%
X78325000Y-116000000D03*
X79875000Y-116000000D03*
%TD*%
D40*
%TO.C,R29*%
X99600000Y-121225000D03*
X99600000Y-122875000D03*
%TD*%
D13*
%TO.C,J13*%
X173329600Y-56616600D03*
X173329600Y-59156600D03*
X173329600Y-61696600D03*
X173329600Y-64236600D03*
X173329600Y-66776600D03*
X173329600Y-69316600D03*
X173329600Y-71856600D03*
X173329600Y-74396600D03*
X173329600Y-76936600D03*
X173329600Y-79476600D03*
X173329600Y-82016600D03*
X173329600Y-84556600D03*
%TD*%
D29*
%TO.C,TP22*%
X66000000Y-112500000D03*
%TD*%
D51*
%TO.C,U14*%
X175300000Y-129500000D03*
X175300000Y-130000000D03*
X175300000Y-130500000D03*
X175300000Y-131000000D03*
X175300000Y-131500000D03*
X179700000Y-131500000D03*
X179700000Y-131000000D03*
X179700000Y-130500000D03*
X179700000Y-130000000D03*
X179700000Y-129500000D03*
%TD*%
D29*
%TO.C,TP14*%
X48500000Y-99500000D03*
%TD*%
D45*
%TO.C,R1*%
X179000000Y-83775000D03*
X179000000Y-82125000D03*
%TD*%
D16*
%TO.C,C48*%
X221500000Y-116225000D03*
X221500000Y-117775000D03*
%TD*%
D56*
%TO.C,D2*%
X81200000Y-118000000D03*
X83300000Y-118000000D03*
%TD*%
D15*
%TO.C,U7*%
X218000000Y-64200000D03*
X218500000Y-64200000D03*
X219000000Y-64200000D03*
X219500000Y-64200000D03*
X220000000Y-64200000D03*
X220000000Y-59800000D03*
X219500000Y-59800000D03*
X219000000Y-59800000D03*
X218500000Y-59800000D03*
X218000000Y-59800000D03*
%TD*%
D29*
%TO.C,TP19*%
X65700000Y-110100000D03*
%TD*%
D47*
%TO.C,TP78*%
X206222600Y-84480400D03*
%TD*%
D29*
%TO.C,TP49*%
X116100000Y-66950000D03*
%TD*%
D52*
%TO.C,C43*%
X100100000Y-54075000D03*
X101650000Y-54075000D03*
%TD*%
D16*
%TO.C,C46*%
X221500000Y-87225000D03*
X221500000Y-88775000D03*
%TD*%
D53*
%TO.C,C39*%
X98600000Y-56075000D03*
X101550000Y-56075000D03*
%TD*%
D41*
%TO.C,C16*%
X90700000Y-100100000D03*
X90700000Y-103050000D03*
%TD*%
D47*
%TO.C,TP74*%
X229500000Y-134000000D03*
%TD*%
D40*
%TO.C,R26*%
X69450000Y-121975000D03*
X69450000Y-123625000D03*
%TD*%
D39*
%TO.C,C31*%
X75100000Y-112400000D03*
X73550000Y-112400000D03*
%TD*%
D15*
%TO.C,U9*%
X218000000Y-93200000D03*
X218500000Y-93200000D03*
X219000000Y-93200000D03*
X219500000Y-93200000D03*
X220000000Y-93200000D03*
X220000000Y-88800000D03*
X219500000Y-88800000D03*
X219000000Y-88800000D03*
X218500000Y-88800000D03*
X218000000Y-88800000D03*
%TD*%
D37*
%TO.C,R12*%
X64850000Y-119900000D03*
X63200000Y-119900000D03*
%TD*%
D29*
%TO.C,TP18*%
X65950000Y-117900000D03*
%TD*%
D43*
%TO.C,C24*%
X125700000Y-92977780D03*
D44*
X125700000Y-85477780D03*
%TD*%
D29*
%TO.C,TP44*%
X94710000Y-126450000D03*
%TD*%
D41*
%TO.C,C17*%
X93150000Y-100100000D03*
X93150000Y-103050000D03*
%TD*%
D46*
%TO.C,H1*%
X230000000Y-42000000D03*
%TD*%
D29*
%TO.C,TP32*%
X62000000Y-89200000D03*
%TD*%
D13*
%TO.C,J14*%
X153009600Y-46456600D03*
X153009600Y-48996600D03*
X153009600Y-51536600D03*
X153009600Y-54076600D03*
X153009600Y-56616600D03*
X153009600Y-59156600D03*
X153009600Y-61696600D03*
X153009600Y-64236600D03*
X153009600Y-66776600D03*
X153009600Y-69316600D03*
X153009600Y-71856600D03*
X153009600Y-74396600D03*
X153009600Y-76936600D03*
X153009600Y-79476600D03*
X153009600Y-82016600D03*
X153009600Y-84556600D03*
%TD*%
D52*
%TO.C,C29*%
X78325000Y-114400000D03*
X79875000Y-114400000D03*
%TD*%
D29*
%TO.C,TP64*%
X195500000Y-135500000D03*
%TD*%
%TO.C,TP46*%
X117300000Y-69900000D03*
%TD*%
D51*
%TO.C,U1*%
X47800000Y-82000000D03*
X47800000Y-82500000D03*
X47800000Y-83000000D03*
X47800000Y-83500000D03*
X47800000Y-84000000D03*
X52200000Y-84000000D03*
X52200000Y-83500000D03*
X52200000Y-83000000D03*
X52200000Y-82500000D03*
X52200000Y-82000000D03*
%TD*%
%TO.C,U16*%
X145300000Y-129500000D03*
X145300000Y-130000000D03*
X145300000Y-130500000D03*
X145300000Y-131000000D03*
X145300000Y-131500000D03*
X149700000Y-131500000D03*
X149700000Y-131000000D03*
X149700000Y-130500000D03*
X149700000Y-130000000D03*
X149700000Y-129500000D03*
%TD*%
D57*
%TO.C,TP11*%
X154050000Y-99350000D03*
%TD*%
D29*
%TO.C,TP3*%
X44000000Y-83500000D03*
%TD*%
%TO.C,TP62*%
X210500000Y-135500000D03*
%TD*%
%TO.C,TP33*%
X79700000Y-105300000D03*
%TD*%
D16*
%TO.C,C38*%
X119400000Y-63425000D03*
X119400000Y-64975000D03*
%TD*%
D29*
%TO.C,TP21*%
X65975000Y-114700000D03*
%TD*%
D45*
%TO.C,R32*%
X116100000Y-65025000D03*
X116100000Y-63375000D03*
%TD*%
D29*
%TO.C,TP38*%
X76450000Y-124900000D03*
%TD*%
D41*
%TO.C,C13*%
X83200000Y-100125000D03*
X83200000Y-103075000D03*
%TD*%
D57*
%TO.C,TP13*%
X146100000Y-44900000D03*
%TD*%
D58*
%TO.C,C9*%
X59600000Y-100900000D03*
D35*
X59600000Y-102900000D03*
%TD*%
D46*
%TO.C,H3*%
X32079200Y-141000000D03*
%TD*%
D29*
%TO.C,TP25*%
X76650000Y-108850000D03*
%TD*%
D37*
%TO.C,R25*%
X72375000Y-120500000D03*
X70725000Y-120500000D03*
%TD*%
D29*
%TO.C,TP69*%
X148500000Y-125000000D03*
%TD*%
D41*
%TO.C,C18*%
X95700000Y-100100000D03*
X95700000Y-103050000D03*
%TD*%
D29*
%TO.C,TP5*%
X41900000Y-116200000D03*
%TD*%
%TO.C,TP7*%
X42000000Y-96500000D03*
%TD*%
D47*
%TO.C,TP75*%
X88000000Y-54500000D03*
%TD*%
D15*
%TO.C,U11*%
X218000000Y-122200000D03*
X218500000Y-122200000D03*
X219000000Y-122200000D03*
X219500000Y-122200000D03*
X220000000Y-122200000D03*
X220000000Y-117800000D03*
X219500000Y-117800000D03*
X219000000Y-117800000D03*
X218500000Y-117800000D03*
X218000000Y-117800000D03*
%TD*%
D29*
%TO.C,TP59*%
X212318600Y-119583200D03*
%TD*%
%TO.C,TP48*%
X112375000Y-63950000D03*
%TD*%
D45*
%TO.C,R6*%
X139500000Y-77325000D03*
X139500000Y-75675000D03*
%TD*%
D32*
%TO.C,J8*%
X215540000Y-140500000D03*
D33*
X213000000Y-140500000D03*
X210460000Y-140500000D03*
X207920000Y-140500000D03*
%TD*%
D58*
%TO.C,C8*%
X53600000Y-100900000D03*
D35*
X53600000Y-102900000D03*
%TD*%
D59*
%TO.C,C19*%
X90900000Y-94375000D03*
X90900000Y-91425000D03*
%TD*%
D41*
%TO.C,C10*%
X64500000Y-100100000D03*
X64500000Y-103050000D03*
%TD*%
D50*
%TO.C,R8*%
X130337500Y-56200000D03*
X132162500Y-56200000D03*
%TD*%
D53*
%TO.C,C41*%
X98600000Y-60875000D03*
X101550000Y-60875000D03*
%TD*%
D37*
%TO.C,R18*%
X89025000Y-91400000D03*
X87375000Y-91400000D03*
%TD*%
D42*
%TO.C,R41*%
X168000000Y-128587500D03*
X168000000Y-130412500D03*
%TD*%
D34*
%TO.C,C7*%
X51500000Y-94655113D03*
D35*
X51500000Y-92655113D03*
%TD*%
D50*
%TO.C,R34*%
X217087500Y-71000000D03*
X218912500Y-71000000D03*
%TD*%
D45*
%TO.C,R30*%
X119500000Y-71625000D03*
X119500000Y-69975000D03*
%TD*%
D57*
%TO.C,TP12*%
X128500000Y-73000000D03*
%TD*%
D41*
%TO.C,C12*%
X80700000Y-100125000D03*
X80700000Y-103075000D03*
%TD*%
D47*
%TO.C,TP72*%
X38000000Y-43000000D03*
%TD*%
D29*
%TO.C,TP70*%
X150400000Y-135500000D03*
%TD*%
%TO.C,TP27*%
X73000000Y-110600000D03*
%TD*%
D60*
%TO.C,R28*%
X90875000Y-123950000D03*
X92525000Y-123950000D03*
%TD*%
D29*
%TO.C,TP31*%
X80500000Y-110500000D03*
%TD*%
D61*
%TO.C,Q5*%
X94690000Y-122000000D03*
X94690000Y-123900000D03*
X97310000Y-122950000D03*
%TD*%
D46*
%TO.C,H2*%
X32079200Y-42000000D03*
%TD*%
D45*
%TO.C,R10*%
X71050000Y-112925000D03*
X71050000Y-111275000D03*
%TD*%
D29*
%TO.C,TP28*%
X78900000Y-120400000D03*
%TD*%
%TO.C,TP55*%
X211500000Y-90500000D03*
%TD*%
D30*
%TO.C,J3*%
X229000000Y-53960000D03*
D31*
X229000000Y-56500000D03*
X229000000Y-59040000D03*
X229000000Y-61580000D03*
%TD*%
D37*
%TO.C,R14*%
X64225000Y-113100000D03*
X62575000Y-113100000D03*
%TD*%
D47*
%TO.C,TP77*%
X144400000Y-53900000D03*
%TD*%
D39*
%TO.C,C51*%
X181275000Y-133000000D03*
X179725000Y-133000000D03*
%TD*%
D18*
%TO.C,R5*%
X44750000Y-96400000D03*
X46250000Y-96400000D03*
%TD*%
D29*
%TO.C,TP24*%
X67800000Y-109500000D03*
%TD*%
D36*
%TO.C,C36*%
X106600000Y-70750000D03*
X106600000Y-69200000D03*
%TD*%
D32*
%TO.C,J12*%
X155540000Y-140500000D03*
D33*
X153000000Y-140500000D03*
X150460000Y-140500000D03*
X147920000Y-140500000D03*
%TD*%
D29*
%TO.C,TP54*%
X224000000Y-73500000D03*
%TD*%
D53*
%TO.C,C42*%
X98600000Y-63275000D03*
X101550000Y-63275000D03*
%TD*%
D16*
%TO.C,C47*%
X221500000Y-101725000D03*
X221500000Y-103275000D03*
%TD*%
D42*
%TO.C,R38*%
X213000000Y-128587500D03*
X213000000Y-130412500D03*
%TD*%
D56*
%TO.C,D1*%
X76700000Y-110950000D03*
X78800000Y-110950000D03*
%TD*%
D51*
%TO.C,U13*%
X190300000Y-129500000D03*
X190300000Y-130000000D03*
X190300000Y-130500000D03*
X190300000Y-131000000D03*
X190300000Y-131500000D03*
X194700000Y-131500000D03*
X194700000Y-131000000D03*
X194700000Y-130500000D03*
X194700000Y-130000000D03*
X194700000Y-129500000D03*
%TD*%
D45*
%TO.C,R3*%
X177500000Y-86275000D03*
X177500000Y-84625000D03*
%TD*%
D37*
%TO.C,R13*%
X64225000Y-114700000D03*
X62575000Y-114700000D03*
%TD*%
D29*
%TO.C,TP30*%
X75000000Y-110600000D03*
%TD*%
D52*
%TO.C,C4*%
X140950000Y-73000000D03*
X142500000Y-73000000D03*
%TD*%
D32*
%TO.C,J9*%
X200540000Y-140500000D03*
D33*
X198000000Y-140500000D03*
X195460000Y-140500000D03*
X192920000Y-140500000D03*
%TD*%
D29*
%TO.C,TP66*%
X180500000Y-135500000D03*
%TD*%
D15*
%TO.C,U10*%
X218000000Y-107700000D03*
X218500000Y-107700000D03*
X219000000Y-107700000D03*
X219500000Y-107700000D03*
X220000000Y-107700000D03*
X220000000Y-103300000D03*
X219500000Y-103300000D03*
X219000000Y-103300000D03*
X218500000Y-103300000D03*
X218000000Y-103300000D03*
%TD*%
D59*
%TO.C,C34*%
X102200000Y-71875000D03*
X102200000Y-68925000D03*
%TD*%
D29*
%TO.C,TP35*%
X82800000Y-115200000D03*
%TD*%
D15*
%TO.C,U4*%
X133000000Y-63900000D03*
X133500000Y-63900000D03*
X134000000Y-63900000D03*
X134500000Y-63900000D03*
X135000000Y-63900000D03*
X135000000Y-59500000D03*
X134500000Y-59500000D03*
X134000000Y-59500000D03*
X133500000Y-59500000D03*
X133000000Y-59500000D03*
%TD*%
D29*
%TO.C,TP2*%
X44500000Y-60500000D03*
%TD*%
%TO.C,TP10*%
X148705000Y-59450000D03*
%TD*%
D18*
%TO.C,R24*%
X97700000Y-97900000D03*
X99200000Y-97900000D03*
%TD*%
D51*
%TO.C,U12*%
X205300000Y-129500000D03*
X205300000Y-130000000D03*
X205300000Y-130500000D03*
X205300000Y-131000000D03*
X205300000Y-131500000D03*
X209700000Y-131500000D03*
X209700000Y-131000000D03*
X209700000Y-130500000D03*
X209700000Y-130000000D03*
X209700000Y-129500000D03*
%TD*%
D40*
%TO.C,R21*%
X73050000Y-124075000D03*
X73050000Y-125725000D03*
%TD*%
D16*
%TO.C,C45*%
X221500000Y-72725000D03*
X221500000Y-74275000D03*
%TD*%
D40*
%TO.C,R31*%
X117800000Y-63375000D03*
X117800000Y-65025000D03*
%TD*%
D30*
%TO.C,J5*%
X229000000Y-82960000D03*
D31*
X229000000Y-85500000D03*
X229000000Y-88040000D03*
X229000000Y-90580000D03*
%TD*%
D29*
%TO.C,TP47*%
X97600000Y-72200000D03*
%TD*%
D37*
%TO.C,R16*%
X63700000Y-91000000D03*
X62050000Y-91000000D03*
%TD*%
D39*
%TO.C,C33*%
X74625000Y-122400000D03*
X73075000Y-122400000D03*
%TD*%
D59*
%TO.C,C20*%
X93300000Y-94375000D03*
X93300000Y-91425000D03*
%TD*%
D29*
%TO.C,TP40*%
X74900000Y-127500000D03*
%TD*%
%TO.C,TP29*%
X81300000Y-112800000D03*
%TD*%
D54*
%TO.C,J1*%
X34200000Y-90900000D03*
D55*
X34200000Y-93400000D03*
X34200000Y-95900000D03*
X34200000Y-98400000D03*
X34200000Y-100900000D03*
X34200000Y-103400000D03*
X34200000Y-105900000D03*
X34200000Y-108400000D03*
%TD*%
D50*
%TO.C,R35*%
X217087500Y-85500000D03*
X218912500Y-85500000D03*
%TD*%
D59*
%TO.C,C35*%
X104600000Y-71850000D03*
X104600000Y-68900000D03*
%TD*%
D45*
%TO.C,R19*%
X82800000Y-109200000D03*
X82800000Y-107550000D03*
%TD*%
D30*
%TO.C,J4*%
X229000000Y-68460000D03*
D31*
X229000000Y-71000000D03*
X229000000Y-73540000D03*
X229000000Y-76080000D03*
%TD*%
D40*
%TO.C,R2*%
X52900000Y-77575000D03*
X52900000Y-79225000D03*
%TD*%
D16*
%TO.C,C44*%
X221500000Y-58225000D03*
X221500000Y-59775000D03*
%TD*%
D52*
%TO.C,C5*%
X135475000Y-57700000D03*
X137025000Y-57700000D03*
%TD*%
D62*
X75000000Y-110600000D03*
X78900000Y-118300000D03*
X81300000Y-112800000D03*
X73000000Y-110600000D03*
X72800000Y-127500000D03*
X43500000Y-69500000D03*
X78900000Y-120400000D03*
X82800000Y-115200000D03*
X212293200Y-119580000D03*
X192500000Y-125000000D03*
X44000000Y-83500000D03*
X148500000Y-125000000D03*
X162500000Y-124500000D03*
X44500000Y-60500000D03*
X178000000Y-125000000D03*
X211500000Y-76000000D03*
X211500000Y-105000000D03*
X206500000Y-61500000D03*
X44000000Y-86000000D03*
X55000000Y-79500000D03*
X211500000Y-90500000D03*
X208000000Y-123500000D03*
X46000000Y-55500000D03*
X74900000Y-127500000D03*
X99600000Y-125000000D03*
X117300000Y-69900000D03*
X79700000Y-105300000D03*
X82800000Y-105800000D03*
M02*
